<?xml version="1.0" encoding="UTF-8"?>
<svg id="Layer_1" data-name="Layer 1" xmlns="http://www.w3.org/2000/svg" viewBox="0 0 400 400">
  <defs>
    <style>
      .cls-1 {
        fill: #d81964;
      }
    </style>
  </defs>
  <path class="cls-1" d="M233.69,354c-13.28-.35-26.5-2-39.46-4.91-72.26-14.58-128.73-71.05-143.32-143.31-1.48-7.26-2.59-13.66-3.37-19.56-.36-2.64,1.49-5.06,4.12-5.42,2.64-.36,5.06,1.49,5.42,4.12.77,5.69,1.85,11.89,3.28,18.94,13.82,68.46,67.33,121.97,135.79,135.8,12.33,2.78,24.9,4.36,37.54,4.72,11.33-.27,22.6-1.6,33.69-3.95v-58.61h-4.81c-2.66,0-4.81-2.15-4.81-4.81s2.15-4.81,4.81-4.81h9.62c2.66,0,4.81,2.15,4.81,4.81v67.38c0,2.29-1.61,4.25-3.85,4.71-12.96,2.92-26.18,4.56-39.46,4.91Z"/>
  <path class="cls-1" d="M195.19,296.25c-.45,0-.9-.06-1.33-.19-43.71-12.06-77.86-46.21-89.92-89.92-.73-2.55.74-5.22,3.3-5.95.43-.12.88-.19,1.33-.19h14.44v-67.38H58.42c-1.85,11.13-2.79,22.4-2.8,33.69,0,2.66-2.15,4.81-4.81,4.81s-4.81-2.15-4.81-4.81c0-13.24,1.24-26.45,3.72-39.46.46-2.24,2.43-3.85,4.72-3.85h73.38c2.66,0,4.81,2.15,4.81,4.81h0v77c0,2.66-2.15,4.81-4.81,4.81h-12.7c11.83,35.54,39.72,63.43,75.26,75.26v-7.89c0-2.66,2.15-4.81,4.81-4.81h48.12c2.66,0,4.81,2.15,4.81,4.81s-2.15,4.81-4.81,4.81h-43.31v9.63c0,2.66-2.15,4.81-4.81,4.81Z"/>
  <path class="cls-1" d="M200,84.5c-2.66,0-4.81-2.15-4.81-4.81v-28.88c0-2.66,2.15-4.81,4.81-4.81s4.81,2.15,4.81,4.81v28.88c0,2.66-2.15,4.81-4.81,4.81Z"/>
  <path class="cls-1" d="M139.84,100.62c-1.72,0-3.31-.92-4.17-2.41l-14.44-25.02c-1.34-2.29-.58-5.24,1.72-6.59,2.29-1.34,5.24-.58,6.59,1.72.01.02.02.04.03.06l14.44,25.02c1.33,2.3.54,5.25-1.76,6.57-.73.42-1.56.64-2.4.64Z"/>
  <path class="cls-1" d="M329.2,279.41c-.85,0-1.68-.22-2.41-.64l-25.03-14.44c-2.31-1.31-3.12-4.25-1.81-6.56,1.31-2.31,4.25-3.12,6.56-1.81.02.01.04.02.06.03l25.03,14.44c2.3,1.33,3.09,4.27,1.76,6.57-.86,1.49-2.45,2.41-4.17,2.41h0Z"/>
  <path class="cls-1" d="M349.19,204.81h-28.87c-2.66,0-4.81-2.15-4.81-4.81s2.15-4.81,4.81-4.81h28.87c2.66,0,4.81,2.15,4.81,4.81s-2.15,4.81-4.81,4.81Z"/>
  <path class="cls-1" d="M304.2,144.66c-2.66,0-4.81-2.15-4.81-4.81,0-1.72.92-3.31,2.41-4.17l25.03-14.44c2.31-1.31,5.25-.51,6.56,1.8,1.3,2.29.52,5.2-1.75,6.53l-25.03,14.44c-.73.42-1.56.65-2.41.64Z"/>
  <path class="cls-1" d="M260.16,100.62c-2.66,0-4.81-2.16-4.81-4.82,0-.84.22-1.67.64-2.4l14.44-25.02c1.34-2.29,4.29-3.06,6.59-1.72,2.27,1.33,3.05,4.24,1.75,6.53l-14.44,25.02c-.86,1.49-2.45,2.41-4.17,2.41Z"/>
  <path class="cls-1" d="M209.63,224.06h-38.5c-2.66,0-4.81-2.15-4.81-4.81v-33.69c0-2.66,2.15-4.81,4.81-4.81h33.69v-24.06h-33.69c-2.66,0-4.81-2.15-4.81-4.81s2.15-4.81,4.81-4.81h38.5c2.66,0,4.81,2.15,4.81,4.81v33.69c0,2.66-2.15,4.81-4.81,4.81h-33.69v24.06h33.69c2.66,0,4.81,2.15,4.81,4.81s-2.15,4.81-4.81,4.81Z"/>
  <path class="cls-1" d="M228.88,190.37c-2.66,0-4.81-2.15-4.81-4.81v-33.69c0-2.66,2.15-4.81,4.81-4.81s4.81,2.15,4.81,4.81v33.69c0,2.66-2.15,4.81-4.81,4.81Z"/>
  <path class="cls-1" d="M267.38,224.06c-2.66,0-4.81-2.15-4.81-4.81v-67.38c0-2.66,2.15-4.81,4.81-4.81s4.81,2.15,4.81,4.81v67.38c0,2.66-2.15,4.81-4.81,4.81Z"/>
  <path class="cls-1" d="M267.38,190.37h-38.5c-2.66,0-4.81-2.15-4.81-4.81s2.15-4.81,4.81-4.81h38.5c2.66,0,4.81,2.15,4.81,4.81s-2.15,4.81-4.81,4.81Z"/>
</svg>