<?xml version="1.0" encoding="UTF-8"?>
<svg id="Layer_1" data-name="Layer 1" xmlns="http://www.w3.org/2000/svg" viewBox="0 0 400 400">
  <defs>
    <style>
      .cls-1 {
        fill: none;
        stroke: #d81964;
        stroke-miterlimit: 10;
        stroke-width: 8.39px;
      }
    </style>
  </defs>
  <path class="cls-1" d="M221.74,170.45c-49.47,0-43.64,53.39-1.75,53.39h27.97M317.27,223.83h-69.32c-31.19,0-58.93-36.98-26.22-53.39,0-18.43-26.69-23.6-42.46-13.76-22.68,14.16-40.42,51.14-63.2,51.14h-43.73"/>
  <line class="cls-1" x1="170.62" y1="224.61" x2="83.31" y2="224.61"/>
  <path class="cls-1" d="M247.24,282.13l-6.75,4.98M233.73,292.09l-33.74,24.88-87.75-64.7c-47.67-35.15-58.09-79.44-47.43-113.9M67.8,130.24c19.7-46.2,78.83-69.78,132.19-17.38,94.25-92.54,206.5,51.86,87.75,139.42l-33.74,24.88"/>
  <path class="cls-1" d="M234.74,262.96c-13.06,0-20.45-13.95-34.75-13.95s-21.69,13.95-34.75,13.95"/>
  <path class="cls-1" d="M139.65,195.81c-12.67-1.31-22.56-11.58-22.56-25.04s11.27-25.17,25.17-25.17c12.47,0,22.81,9.06,24.82,20.96"/>
  <path class="cls-1" d="M165.05,140.66l7.59-10.04M112.15,147.99l-10.04-7.59M127.58,135.99l-4.9-11.59M95.89,190.36l11.59-4.9M146.94,133.3l1.56-12.49M92.31,164.55l12.49,1.56"/>
  <path class="cls-1" d="M283.53,110.33v-8.39M300.31,118.72v-8.39"/>
  <path class="cls-1" d="M236.42,138.98c0-4.63,3.76-8.39,8.39-8.39,4.63,0,8.39,3.76,8.39,8.39M276.28,170.45c0-5.79,4.7-10.49,10.49-10.49s10.49,4.7,10.49,10.49M255.3,170.45c0-5.79,4.7-10.49,10.49-10.49s10.49,4.7,10.49,10.49M253.2,138.98c0-4.63,3.76-8.39,8.39-8.39s8.39,3.76,8.39,8.39"/>
</svg>