<?xml version="1.0" encoding="UTF-8"?>
<svg id="Layer_1" data-name="Layer 1" xmlns="http://www.w3.org/2000/svg" viewBox="0 0 400 400">
  <defs>
    <style>
      .cls-1 {
        fill: #d81964;
      }
    </style>
  </defs>
  <path class="cls-1" d="M146.82,334.6c30.8,0,57.61-17.44,71.08-43.01h95.85c10.91,0,19.77-8.86,19.77-19.77v-116.65c0-10.91-8.86-19.77-19.77-19.77h-12.44l-43.07-70-113.86,70h-15.11c-10.91,0-19.83,8.86-19.83,19.77v28.01c-25.51,13.47-42.95,40.23-42.95,71.08,0,44.26,36.02,80.34,80.34,80.34ZM322.16,226.02h-47.67c-6.88,0-12.5-5.63-12.5-12.5s5.63-12.5,12.5-12.5h47.67v25ZM254.49,81.02l33.41,54.38h-121.82l88.41-54.38ZM120.85,155.17c0-4.66,3.81-8.41,8.47-8.41h184.43c4.66,0,8.41,3.75,8.41,8.41v34.49h-47.67c-13.18,0-23.86,10.68-23.86,23.86s10.68,23.86,23.86,23.86h47.67v34.43c0,4.66-3.75,8.41-8.41,8.41h-90.97c2.78-8.18,4.38-16.88,4.38-25.97,0-44.32-36.02-80.34-80.34-80.34-9.09,0-17.84,1.59-26.02,4.38v-23.13h.06ZM146.82,185.28c38.01,0,68.98,30.97,68.98,68.98s-30.97,68.98-68.98,68.98-68.98-30.97-68.98-68.98,30.97-68.98,68.98-68.98Z"/>
  <path class="cls-1" d="M130.28,291.99l62.56-62.61-8.01-8.01-54.55,54.55-28.47-28.47-8.01,8.07,36.48,36.48Z"/>
</svg>