<?xml version="1.0" encoding="UTF-8"?>
<svg id="Layer_1" data-name="Layer 1" xmlns="http://www.w3.org/2000/svg" viewBox="0 0 400 400">
  <defs>
    <style>
      .cls-1 {
        fill: #d81964;
      }
    </style>
  </defs>
  <path class="cls-1" d="M339,162.61c0-75.79-62.33-137.41-138.99-137.41S61,86.82,61,162.61c0,41.78,18.63,79.33,48.72,104.12l-33.67,63.03c-.72,1.42-.72,3.54,0,4.96s2.86,2.12,4.3,1.42l53.02-9.92,21.49,48.87c.72,1.42,2.15,2.83,4.3,2.83,1.43,0,3.58-.71,4.3-2.12l36.54-70.83,36.54,70.83c.72,1.42,2.15,2.12,4.3,2.12,1.43,0,3.58-.71,4.3-2.83l21.5-48.87,53.02,9.92c1.43,0,3.58,0,4.3-1.42.71-1.42,1.43-3.54,0-4.96l-33.68-63.03c30.09-24.79,48.72-62.33,48.72-104.12ZM159.88,363.05l-19.35-43.2c-.72-2.13-2.86-2.84-5.01-2.84l-47.29,9.21,28.66-53.83c21.49,15.58,47.29,25.49,75.95,26.91l-32.96,63.74ZM311.77,326.22l-47.29-9.21c-2.15-.71-4.29.71-5.01,2.84l-19.35,43.2-32.96-63.74c27.94-1.42,54.46-11.33,75.95-26.91l28.66,53.83ZM200,290.8c-71.65,0-129.69-57.37-129.69-128.19S128.35,34.41,200,34.41s129.69,57.37,129.69,128.2-58.04,128.19-129.69,128.19Z"/>
  <path class="cls-1" d="M200,69.82c-51.59,0-93.86,41.79-93.86,92.79s42.27,92.78,93.86,92.78,93.86-41.78,93.86-92.78-41.56-92.79-93.86-92.79ZM200,246.89c-46.57,0-85.26-37.54-85.26-84.28s37.97-84.29,85.26-84.29,85.26,37.54,85.26,84.29-37.97,84.28-85.26,84.28Z"/>
  <path class="cls-1" d="M260.19,142.07l-22.22-21.95c-.71-.71-2.14-1.42-2.86-1.42s-2.15.71-2.86,1.42l-41.56,41.08-19.34-19.12c-1.43-1.42-4.3-1.42-6.45,0l-22.21,21.96c-.72.71-1.43,2.12-1.43,2.83s.72,2.12,1.43,2.84l44.42,43.91c.72.71,2.15,1.41,2.86,1.41s2.15-.71,2.87-1.41l66.63-65.87c2.86-.71,2.86-3.54.72-5.66ZM190.69,205.11l-37.97-37.54,15.76-15.58,19.35,19.12c1.43,1.41,4.3,1.41,6.45,0l40.84-40.37,15.76,15.58-60.19,58.79Z"/>
</svg>