<?xml version="1.0" encoding="UTF-8"?>
<svg id="Layer_1" data-name="Layer 1" xmlns="http://www.w3.org/2000/svg" viewBox="0 0 171.01 28.28">
  <defs>
    <style>
      .cls-1 {
        fill: #1b1717;
      }

      .cls-1, .cls-2, .cls-3 {
        stroke-width: 0px;
      }

      .cls-4 {
        stroke-miterlimit: 10;
      }

      .cls-4, .cls-5 {
        fill: none;
        stroke: #d81964;
        stroke-width: .19px;
      }

      .cls-2 {
        fill: #fff;
      }

      .cls-3 {
        fill: #d81964;
      }

      .cls-5 {
        stroke-linecap: round;
        stroke-linejoin: round;
      }
    </style>
  </defs>
  <g>
    <path class="cls-4" d="m10.84.92c-.17.29-.66.97-1.5,1.85s-.59,2.19-.54,2.49"/>
    <path class="cls-1" d="m22.78,9.83c-.02-.26-.11-.66-.26-1.19-.16-.53-.39-1-.69-1.41-.3-.41-.79-.78-1.46-1.1-.67-.32-1.48-.48-2.42-.48-1.93,0-3.31.17-4.13.5v-3.38c0-.82-.14-1.42-.4-1.78-.27-.36-.58-.54-.92-.54s-.77-.02-1.26-.06c-.5-.04-.9-.17-1.2-.39v19.69c1.23.07,2.18-.05,2.85-.37.67-.31.98-.97.95-1.98v-7.78c.82-.3,1.64-.45,2.47-.45,1.32.03,2.11.32,2.36.87.25.55.37,2.08.35,4.58v2.78c0,1.9,1.26,2.69,3.79,2.35v-9.19c.02-.19.02-.41,0-.67Z"/>
    <polygon class="cls-3" points="5.85 14.89 6.5 15.3 8.19 12.64 5.83 12.02 5.85 14.89"/>
    <path class="cls-3" d="m4.91,12.11l-2.76,1.38c.76.49,1.51.97,2.27,1.46h0c.2.13.4.27.6.4l.43-.41-.55-2.82Z"/>
    <circle class="cls-2" cx="11.1" cy="1.49" r=".21"/>
    <path class="cls-5" d="m8.69,5.4c.02.31,1.19-.66,1.72-1.22.54-.55.88-1.13.92-1.71s-.2-.99-.2-.99"/>
    <path class="cls-3" d="m9.84,5.89c-.2-.27-.43-.51-.69-.73l-.09-.06s-.05-.04-.08-.06l-.69-.43c-1.65-.81-3.57-.46-4.46.91l-.32.49-.73,1.15h0S.11,11.24.11,11.24c-.24.36-.08.88.34,1.15.27.17.54.35.81.52.98-.8,3.42-2.81,3.41-2.85-.4-3.16.15-3.25.16-3.25h0s.57-.07.82,3.15c0,.03,1.87,1.02,3.17,1.7l.26-.41h0s.75-1.14.75-1.14l.32-.49c.72-1.12.54-2.59-.31-3.73Z"/>
  </g>
  <g>
    <path class="cls-1" d="m26.18,9.32c0-.05,0-.12-.03-.2-.02-.08-.02-.25-.01-.5,0-.25.03-.48.08-.7.04-.22.13-.47.25-.75.13-.28.3-.52.51-.71.21-.19.5-.36.86-.5.36-.14.79-.2,1.28-.2h.71c.44-.02.89-.02,1.36,0,.47.02.93.04,1.4.06.47.03.92.1,1.36.22.44.12.86.26,1.26.43.4.17.76.41,1.09.72.33.31.62.67.86,1.08.25.41.44.91.57,1.5.14.59.2,1.26.2,2.01v2.8c0,.69-.08,1.33-.23,1.89-.15.57-.34,1.03-.57,1.39-.23.36-.51.67-.85.94-.34.27-.66.47-.95.6-.3.13-.64.23-1.03.3-.39.08-.69.12-.9.14-.21.02-.46.03-.75.03h-3.5c-.05,0-.13,0-.23-.01-.1,0-.29-.03-.57-.08-.28-.04-.55-.11-.8-.19-.25-.08-.54-.22-.85-.42-.31-.19-.58-.42-.8-.69-.22-.26-.41-.61-.56-1.03-.15-.42-.23-.9-.23-1.42,0-.93.12-1.72.36-2.35.24-.64.6-1.13,1.08-1.47.48-.35,1.02-.59,1.61-.72.59-.14,1.31-.2,2.16-.2,1.47,0,2.48-.1,3.01-.29.53-.19.8-.5.8-.9,0-.58-.55-.97-1.66-1.17-1.11-.2-2.29-.25-3.53-.13-1.24.12-2.16.3-2.76.53Zm8.05,3.84c-.07.09-.17.19-.29.3-.13.12-.41.28-.85.47-.44.19-.9.29-1.37.29-.83,0-1.5.1-2.02.3-.52.2-.77.49-.77.86,0,.44.19.77.56.99.37.22,1.12.33,2.23.33.46,0,.81,0,1.05-.01.25,0,.47-.07.69-.19.21-.12.36-.23.44-.33.08-.1.16-.32.22-.65.06-.33.09-.65.1-.95,0-.31.01-.78.01-1.42Z"/>
    <path class="cls-1" d="m44.12,17.5c.03,1.02-.28,1.68-.95,2-.67.31-1.62.44-2.86.37V.04c.3.22.71.35,1.21.39.5.04.92.06,1.27.06s.66.18.93.55c.27.36.41.96.41,1.79v14.66Z"/>
    <path class="cls-1" d="m46.54,12.82c-.02-.1-.03-.24-.04-.41,0-.17.02-.5.08-.99.06-.49.16-.96.29-1.41.14-.45.37-.94.71-1.49.34-.54.76-1.01,1.26-1.4.5-.39,1.17-.72,2.02-.98.85-.26,1.81-.39,2.9-.39.76,0,1.46.06,2.11.18.64.12,1.2.28,1.66.48.47.2.88.46,1.24.76.36.3.66.61.9.9.24.3.44.65.6,1.05.16.41.28.76.37,1.05.08.3.14.64.18,1.04.03.4.05.7.06.9,0,.2,0,.46,0,.78,0,.31-.01.49-.01.52,0,.27,0,.52-.03.74-.02.22-.07.57-.15,1.04-.08.47-.2.9-.36,1.27-.15.37-.39.78-.72,1.22-.33.44-.72.81-1.17,1.11-.45.3-1.03.55-1.75.75-.72.2-1.53.3-2.43.3s-1.76-.06-2.49-.18c-.73-.12-1.35-.28-1.85-.47-.51-.19-.95-.46-1.33-.8-.38-.34-.69-.69-.93-1.04-.24-.36-.43-.8-.58-1.32-.15-.52-.27-1.03-.34-1.51-.08-.48-.14-1.05-.19-1.72Zm3.78.23c.05.59.12,1.06.22,1.41.09.35.26.69.51,1.03.25.34.61.58,1.1.74.49.15,1.12.23,1.88.23.59,0,1.1-.09,1.52-.28.42-.19.74-.4.94-.64.2-.24.36-.52.48-.86.12-.34.19-.59.2-.76.02-.17.03-.36.03-.56v-.67c0-.11,0-.28-.03-.5-.02-.22-.05-.41-.09-.57-.04-.16-.1-.35-.18-.57-.08-.22-.17-.41-.28-.57-.11-.16-.25-.33-.43-.5-.18-.17-.38-.31-.6-.42-.22-.11-.49-.2-.8-.27-.31-.07-.66-.1-1.03-.1-.68,0-1.25.09-1.73.28-.47.19-.82.4-1.04.65-.22.25-.39.57-.51.97-.12.4-.18.71-.19.93,0,.22,0,.5.01.84v.2Z"/>
    <path class="cls-1" d="m71.7,6.24c.83-.34,2.22-.51,4.17-.51.95,0,1.76.16,2.44.48.68.32,1.17.69,1.47,1.11.3.42.54.89.7,1.42.16.53.25.93.27,1.19.02.26.02.49,0,.67v9.25c-2.54.34-3.81-.45-3.81-2.36v-2.8c.02-2.52-.1-4.06-.36-4.61-.25-.55-1.05-.84-2.39-.88-.83,0-1.66.15-2.49.46v7.83c.03,1.02-.28,1.68-.95,2-.67.31-1.62.44-2.86.37V.04c.3.22.71.35,1.21.39.5.04.92.06,1.27.06s.66.18.93.55c.27.36.41.96.41,1.79v3.41Z"/>
    <path class="cls-1" d="m83.17,12.82c-.02-.1-.03-.24-.04-.41,0-.17.02-.5.08-.99.06-.49.16-.96.29-1.41.14-.45.37-.94.71-1.49.34-.54.76-1.01,1.26-1.4.5-.39,1.17-.72,2.02-.98.85-.26,1.81-.39,2.9-.39.76,0,1.46.06,2.11.18.64.12,1.2.28,1.66.48.47.2.88.46,1.24.76.36.3.66.61.9.9.24.3.44.65.6,1.05.16.41.28.76.37,1.05.08.3.14.64.18,1.04.03.4.05.7.06.9,0,.2,0,.46,0,.78,0,.31-.01.49-.01.52,0,.27,0,.52-.03.74-.02.22-.07.57-.15,1.04-.08.47-.2.9-.36,1.27-.15.37-.39.78-.72,1.22-.33.44-.72.81-1.17,1.11-.45.3-1.03.55-1.75.75-.72.2-1.53.3-2.43.3s-1.76-.06-2.49-.18c-.73-.12-1.35-.28-1.85-.47-.51-.19-.95-.46-1.33-.8-.38-.34-.69-.69-.93-1.04-.24-.36-.43-.8-.58-1.32-.15-.52-.27-1.03-.34-1.51-.08-.48-.14-1.05-.19-1.72Zm3.78.23c.05.59.12,1.06.22,1.41.09.35.26.69.51,1.03.25.34.61.58,1.1.74.49.15,1.12.23,1.88.23.59,0,1.1-.09,1.52-.28.42-.19.74-.4.94-.64.2-.24.36-.52.48-.86.12-.34.19-.59.2-.76.02-.17.03-.36.03-.56v-.67c0-.11,0-.28-.03-.5-.02-.22-.05-.41-.09-.57-.04-.16-.1-.35-.18-.57-.08-.22-.17-.41-.28-.57-.11-.16-.25-.33-.43-.5-.18-.17-.38-.31-.6-.42-.22-.11-.49-.2-.8-.27-.31-.07-.66-.1-1.03-.1-.68,0-1.25.09-1.73.28-.47.19-.82.4-1.04.65-.22.25-.39.57-.51.97-.12.4-.18.71-.19.93,0,.22,0,.5.01.84v.2Z"/>
    <path class="cls-1" d="m103.7,17.5c.03,1.02-.28,1.68-.95,2-.67.31-1.62.44-2.86.37V.04c.3.22.71.35,1.21.39.5.04.92.06,1.27.06s.66.18.93.55c.27.36.41.96.41,1.79v14.66Z"/>
    <path class="cls-3" d="m106.66,4.31c-.39-.41-.58-.89-.58-1.45s.2-1.04.6-1.44.88-.6,1.43-.6,1.04.2,1.43.6c.4.4.6.88.6,1.44s-.2,1.04-.6,1.44c-.4.4-.88.6-1.43.6s-1.04-.19-1.45-.58Z"/>
    <path class="cls-1" d="m109.99,8.3c0-.83-.14-1.43-.41-1.79-.27-.36-.58-.55-.93-.55s-.77-.02-1.27-.06c-.5-.04-.9-.17-1.21-.39v14.36c1.24.07,2.19-.05,2.86-.37.67-.31.99-.98.95-2v-9.2Z"/>
    <path class="cls-1" d="m122.19.09c.25.19.57.3.95.36.38.05.73.08,1.04.08s.61.05.9.14c.29.09.51.32.67.67.16.36.24.87.24,1.55v15s-.1.11-.24.29c-.14.18-.28.32-.39.43-.12.11-.34.25-.66.43-.32.18-.68.32-1.07.42-.39.1-.91.19-1.57.28-.66.08-1.41.13-2.23.13-2.61,0-4.48-.56-5.61-1.69-1.13-1.13-1.7-3-1.7-5.63,0-1.02.14-1.93.41-2.73.27-.8.63-1.46,1.08-1.97.45-.51.98-.93,1.59-1.27.61-.34,1.23-.58,1.85-.71.63-.14,1.28-.2,1.96-.2,1.3,0,2.23.2,2.79.61V.09Zm0,12.71v-3.61c-.22-.07-.46-.13-.72-.18-.26-.05-.59-.09-.98-.11-.39-.03-.76-.02-1.1.01-.35.03-.71.14-1.08.3-.37.17-.69.39-.97.67-.27.28-.49.67-.66,1.17-.17.5-.25,1.09-.25,1.77s.1,1.2.3,1.68c.2.47.45.84.75,1.09.3.25.66.44,1.09.57.43.13.82.2,1.17.23.35.03.72.02,1.13-.03.41-.04.69-.08.85-.11.16-.03.31-.07.44-.1h.03s.02-1.12,0-3.35Z"/>
    <path class="cls-1" d="m129.45,9.32c0-.05,0-.12-.03-.2-.02-.08-.02-.25-.01-.5,0-.25.03-.48.08-.7.04-.22.13-.47.25-.75.13-.28.3-.52.51-.71.21-.19.5-.36.86-.5.36-.14.79-.2,1.28-.2h.71c.44-.02.89-.02,1.36,0,.47.02.93.04,1.4.06.47.03.92.1,1.36.22.44.12.86.26,1.26.43.4.17.76.41,1.09.72.33.31.62.67.86,1.08.25.41.44.91.57,1.5.14.59.2,1.26.2,2.01v2.8c0,.69-.08,1.33-.23,1.89-.15.57-.34,1.03-.57,1.39-.23.36-.51.67-.85.94-.34.27-.66.47-.95.6-.3.13-.64.23-1.03.3-.39.08-.69.12-.9.14-.21.02-.46.03-.75.03h-3.5c-.05,0-.13,0-.23-.01-.1,0-.29-.03-.57-.08-.28-.04-.55-.11-.8-.19-.25-.08-.54-.22-.85-.42-.31-.19-.58-.42-.8-.69-.22-.26-.41-.61-.56-1.03-.15-.42-.23-.9-.23-1.42,0-.93.12-1.72.36-2.35.24-.64.6-1.13,1.08-1.47.48-.35,1.02-.59,1.61-.72.59-.14,1.31-.2,2.16-.2,1.47,0,2.48-.1,3.01-.29.53-.19.8-.5.8-.9,0-.58-.55-.97-1.66-1.17-1.11-.2-2.29-.25-3.53-.13-1.24.12-2.16.3-2.76.53Zm8.05,3.84c-.07.09-.17.19-.29.3-.13.12-.41.28-.85.47-.44.19-.9.29-1.37.29-.83,0-1.5.1-2.02.3-.52.2-.77.49-.77.86,0,.44.19.77.56.99.37.22,1.12.33,2.23.33.46,0,.81,0,1.05-.01.25,0,.47-.07.69-.19.21-.12.36-.23.44-.33.08-.1.16-.32.22-.65.06-.33.09-.65.1-.95,0-.31.01-.78.01-1.42Z"/>
    <path class="cls-1" d="m151.43,19.18l-3.65,8.06c-.64.69-1.42,1.04-2.34,1.04-.41,0-.76-.11-1.05-.32-.3-.21-.5-.42-.6-.62l-.15-.33,4.26-8.82c-.03-.08-.07-.18-.1-.28-.61-1.49-1.43-3.25-2.46-5.27-1.03-2.02-1.77-3.44-2.22-4.26-.45-.81-.81-1.46-1.08-1.93.54-.17.95-.29,1.22-.36.27-.07.61-.1,1-.09.4,0,.77.06,1.12.17.35.1.7.31,1.05.62.36.31.64.73.86,1.26.24.68.57,1.5,1,2.47.43.97.81,1.77,1.13,2.41.32.64.48.97.48.99,1.13-2.86,1.92-4.93,2.36-6.2.22-.51.5-.92.85-1.23.35-.31.69-.52,1.03-.61.34-.09.7-.14,1.08-.13.38,0,.71.05.98.13.27.08.53.16.77.24.25.08.38.13.39.13-1.47,2.97-2.9,6.12-4.27,9.45l-1.68,3.48Z"/>
    <path class="cls-1" d="m170.07,9.19c-.52-.02-1.21-.06-2.04-.14s-1.45-.12-1.83-.13c-.38,0-1,.01-1.87.06-.22.02-.42.05-.58.1-.64.19-.93.48-.86.89.05.25.22.4.51.43.86.14,1.65.3,2.37.5.72.19,1.32.4,1.82.61.49.21.94.44,1.33.7.4.25.71.5.94.75.23.25.43.49.61.74.18.25.29.48.34.7.05.22.1.43.15.62.05.19.06.36.04.48-.03.13-.03.22-.01.29v.05c0,1.44-.6,2.47-1.8,3.09-1.2.62-3.07.93-5.61.93-.68,0-1.27-.07-1.77-.22-.5-.14-.89-.31-1.17-.51-.28-.19-.5-.43-.66-.71-.16-.28-.27-.53-.32-.76-.05-.23-.07-.47-.06-.71,0-.25.02-.42.04-.51.02-.09.03-.16.05-.19.52.02,1.21.06,2.04.14.84.08,1.45.12,1.83.13.38,0,1-.01,1.87-.06.52-.05.94-.14,1.24-.28.3-.14.48-.28.52-.43.04-.15.02-.3-.08-.46-.09-.15-.25-.29-.47-.42-.22-.13-.47-.22-.76-.29-.44-.14-.99-.27-1.66-.41-.67-.14-1.22-.25-1.66-.33-.44-.08-.91-.23-1.42-.43-.51-.2-.92-.44-1.23-.72-.31-.28-.58-.67-.79-1.18-.21-.51-.33-1.11-.34-1.8v-.1c0-1.44.6-2.47,1.8-3.09,1.2-.62,3.07-.93,5.61-.93.68,0,1.27.07,1.77.22.5.14.89.31,1.17.51.28.19.5.43.66.71.16.28.27.53.32.76.05.23.07.47.06.71,0,.25-.02.42-.04.51-.02.09-.03.16-.05.19Z"/>
  </g>
</svg>